<?xml version="1.0" encoding="iso-8859-1"?>
<!-- Generator: Adobe Illustrator 16.0.0, SVG Export Plug-In . SVG Version: 6.00 Build 0)  -->
<!DOCTYPE svg PUBLIC "-//W3C//DTD SVG 1.1//EN" "http://www.w3.org/Graphics/SVG/1.1/DTD/svg11.dtd">
<svg version="1.1" id="Capa_1" xmlns="http://www.w3.org/2000/svg" xmlns:xlink="http://www.w3.org/1999/xlink" x="0px" y="0px"
	 width="83.818px" height="83.818px" viewBox="0 0 83.818 83.818" style="enable-background:new 0 0 83.818 83.818;"
	 xml:space="preserve">
<g>
	<g>
		<path d="M23.772,51.659h7.416c0.552,0,1,0.446,1,1v7.5h20.168v-7.5c0-0.554,0.447-1,1-1h7.416v-6.5h-37V51.659z M32.272,46.743h20
			c0.551,0,1,0.446,1,1c0,0.553-0.449,1-1,1h-20c-0.552,0-1-0.447-1-1C31.272,47.189,31.72,46.743,32.272,46.743z"/>
		<path d="M28.022,30.659c0,2.344,1.907,4.25,4.25,4.25c2.343,0,4.25-1.906,4.25-4.25c0-2.344-1.907-4.25-4.25-4.25
			C29.929,26.409,28.022,28.316,28.022,30.659z"/>
		<path d="M48.022,30.659c0,2.344,1.906,4.25,4.25,4.25c2.342,0,4.25-1.906,4.25-4.25c0-2.344-1.908-4.25-4.25-4.25
			C49.929,26.409,48.022,28.316,48.022,30.659z"/>
		<rect x="57.022" y="57.576" width="3.75" height="9.167"/>
		<rect x="23.772" y="57.576" width="3.75" height="9.167"/>
		<path d="M41.909,0C18.763,0,0.001,18.764,0.001,41.91c0,23.145,18.763,41.908,41.908,41.908S83.817,65.054,83.817,41.91
			C83.817,18.764,65.054,0,41.909,0z M42.272,15.409c11.303,0,20.5,9.196,20.5,20.5c0,0.553-0.449,1-1,1c-0.553,0-1-0.447-1-1
			c0-10.201-8.3-18.5-18.5-18.5c-10.202,0-18.5,8.299-18.5,18.5c0,0.553-0.448,1-1,1c-0.552,0-1-0.447-1-1
			C21.772,24.606,30.969,15.409,42.272,15.409z M58.522,30.659c0,3.446-2.805,6.25-6.25,6.25c-3.447,0-6.25-2.804-6.25-6.25
			c0-3.446,2.803-6.25,6.25-6.25C55.718,24.409,58.522,27.213,58.522,30.659z M38.522,30.659c0,3.446-2.804,6.25-6.25,6.25
			c-3.446,0-6.25-2.804-6.25-6.25c0-3.446,2.804-6.25,6.25-6.25C35.718,24.409,38.522,27.213,38.522,30.659z M22.772,39.909h39
			c0.551,0,1,0.447,1,1c0,0.553-0.449,1-1,1h-39c-0.552,0-1-0.447-1-1C21.772,40.356,22.22,39.909,22.772,39.909z M29.522,67.743
			c0,0.553-0.448,1-1,1h-5.75c-0.552,0-1-0.447-1-1V56.576c0-0.553,0.448-1,1-1h5.75c0.552,0,1,0.447,1,1V67.743z M62.772,67.743
			c0,0.553-0.449,1-1,1h-5.75c-0.553,0-1-0.447-1-1V56.576c0-0.553,0.447-1,1-1h5.75c0.551,0,1,0.447,1,1V67.743z M73.188,30.659
			v13.5c0,0.553-0.447,1-1,1h-9.416v7.5c0,0.553-0.449,1-1,1h-7.416v7.5c0,0.553-0.449,1-1,1H31.188c-0.552,0-1-0.447-1-1v-7.5
			h-7.416c-0.552,0-1-0.447-1-1v-7.5h-9.75c-0.552,0-1-0.447-1-1V29.743c0-0.553,0.448-1,1-1c0.552,0,1,0.447,1,1v13.416h9.75h39
			h9.416v-12.5c0-0.553,0.448-1,1-1C72.741,29.659,73.188,30.107,73.188,30.659z"/>
	</g>
</g>
<g>
</g>
<g>
</g>
<g>
</g>
<g>
</g>
<g>
</g>
<g>
</g>
<g>
</g>
<g>
</g>
<g>
</g>
<g>
</g>
<g>
</g>
<g>
</g>
<g>
</g>
<g>
</g>
<g>
</g>
</svg>
